<svg xmlns="http://www.w3.org/2000/svg" xmlns:xlink="http://www.w3.org/1999/xlink" preserveAspectRatio="xMidYMid" width="239" height="7" viewBox="0 0 239 7">
  <defs>
    <style>
      .cls-1 {
        fill: #000;
        fill-rule: evenodd;
      }
    </style>
  </defs>
  <path d="M235.500,7.000 C233.736,7.000 232.278,5.695 232.036,3.998 L164.000,3.998 L164.000,2.999 L232.036,2.999 C232.279,1.303 233.737,-0.000 235.500,-0.000 C237.433,-0.000 239.000,1.567 239.000,3.500 C239.000,5.433 237.433,7.000 235.500,7.000 ZM3.500,7.000 C1.567,7.000 -0.000,5.433 -0.000,3.500 C-0.000,1.567 1.567,-0.000 3.500,-0.000 C5.263,-0.000 6.720,1.303 6.964,2.999 L73.000,2.999 L73.000,3.998 L6.964,3.998 C6.722,5.695 5.264,7.000 3.500,7.000 Z" class="cls-1"/>
</svg>
